<svg xmlns="http://www.w3.org/2000/svg" xmlns:xlink="http://www.w3.org/1999/xlink" viewBox="0 0 533.51 737.84"><defs><style>.cls-1{fill:url(#Degradado_sin_nombre_4);}.cls-2{fill:#fff;}.cls-3{fill:#cecece;}.cls-4{fill:none;stroke:#000;stroke-miterlimit:10;}.cls-5{fill:url(#Degradado_sin_nombre_23);}.cls-6{fill:url(#Degradado_sin_nombre_19);}.cls-7{fill:url(#Degradado_sin_nombre_13);}.cls-8{fill:#ffd3ca;}.cls-9{fill:#ffb3b3;}.cls-10{fill:url(#Degradado_sin_nombre_4-2);}.cls-11{fill:#7135f2;}.cls-12{fill:url(#Degradado_sin_nombre_23-2);}.cls-13{fill:url(#Degradado_sin_nombre_19-2);}.cls-14{fill:url(#Degradado_sin_nombre_13-2);}.cls-15{fill:url(#Degradado_sin_nombre_23-3);}.cls-16{opacity:0.15;}.cls-17{fill:#05dbf2;}.cls-18{fill:#f6e8f9;}.cls-19{fill:url(#Degradado_sin_nombre_23-4);}.cls-20{fill:#999;}.cls-21{fill:#fcfcfc;}</style><linearGradient id="Degradado_sin_nombre_4" x1="429.34" y1="747.93" x2="302.16" y2="468.54" gradientUnits="userSpaceOnUse"><stop offset="0" stop-color="#05aff2"/><stop offset="1" stop-color="#7135f2"/></linearGradient><linearGradient id="Degradado_sin_nombre_23" x1="368" y1="731.34" x2="477" y2="731.34" gradientUnits="userSpaceOnUse"><stop offset="0" stop-color="#333"/><stop offset="1"/></linearGradient><linearGradient id="Degradado_sin_nombre_19" x1="2" y1="543.84" x2="15" y2="543.84" gradientUnits="userSpaceOnUse"><stop offset="0" stop-color="#754c24"/><stop offset="1" stop-color="#c69c6d"/></linearGradient><linearGradient id="Degradado_sin_nombre_13" x1="23.15" y1="252.26" x2="76" y2="252.26" gradientUnits="userSpaceOnUse"><stop offset="0" stop-color="gray"/><stop offset="1" stop-color="#333"/></linearGradient><linearGradient id="Degradado_sin_nombre_4-2" x1="54.04" y1="683.39" x2="489.15" y2="382.98" xlink:href="#Degradado_sin_nombre_4"/><linearGradient id="Degradado_sin_nombre_23-2" x1="485" y1="347.31" x2="533.51" y2="347.31" xlink:href="#Degradado_sin_nombre_23"/><linearGradient id="Degradado_sin_nombre_19-2" x1="0" y1="358.84" x2="328" y2="358.84" xlink:href="#Degradado_sin_nombre_19"/><linearGradient id="Degradado_sin_nombre_13-2" x1="66" y1="344.34" x2="290" y2="344.34" xlink:href="#Degradado_sin_nombre_13"/><linearGradient id="Degradado_sin_nombre_23-3" x1="419" y1="614.84" x2="428" y2="614.84" xlink:href="#Degradado_sin_nombre_23"/><linearGradient id="Degradado_sin_nombre_23-4" x1="335.83" y1="488.06" x2="495.45" y2="488.06" xlink:href="#Degradado_sin_nombre_23"/></defs><g id="Capa_2" data-name="Capa 2"><g id="Capa_1-2" data-name="Capa 1"><path class="cls-1" d="M296,544.84c2,1,60,115,60,115l39-19s-24-43-27-78-10-74-25-87-52,8-52,8Z"/><path class="cls-2" d="M427,704.84c-6,9-49,13-65,26s-72,3-71.67,2.14-1-10.71.88-15.64a6.23,6.23,0,0,1,.79-1.5c3-4,31-7,31-7,34-14,33-49,33-49l39-19c0,11,31,44,31,44s.18.29.47.82C427.93,688.36,432,697.3,427,704.84Z"/><path class="cls-3" d="M427,704.84c-6,9-49,13-65,26s-72,3-71.67,2.14-1-10.71.88-15.64c54.31,22.08,121.52-22,135.26-31.68C427.93,688.36,432,697.3,427,704.84Z"/><circle class="cls-4" cx="357" cy="694.84" r="2"/><circle class="cls-4" cx="362" cy="686.84" r="2"/><circle class="cls-4" cx="365" cy="676.84" r="2"/><circle class="cls-4" cx="366" cy="666.84" r="2"/><ellipse class="cls-5" cx="422.5" cy="731.34" rx="54.5" ry="6.5"/><polygon class="cls-6" points="2 725.84 9 360.84 15 360.84 9 726.84 2 725.84"/><path class="cls-7" d="M76,339.84l-50-177s-9-5,5,41,39,138,39,138Z"/><path class="cls-8" d="M405,70.84s9,20,22,22c0,0-44,33-56,29l-5-15S363,69.84,405,70.84Z"/><path class="cls-8" d="M321,32.84s-4,22,5,33-3,34-3,34h14l33-16,6-19-20-25-21-16Z"/><path class="cls-2" d="M373,123.84l1,4s52-25,59-34-8-6-17,1-40,23-40,23l-5,4Z"/><path class="cls-9" d="M278,302.84s-10-29-32-25c-19,8-20,14-19,18s6,11,6,11l11-3s-2-4,2-5,6,4,6,4Z"/><path class="cls-10" d="M492,349.84s63,87-37,125c-62,20-101,5-143,8,0,0,9,51-13,104-9,34-7,77-7,77l-42-2s-28-245-2-257,101-42,101-42l67-32Z"/><circle class="cls-4" cx="328" cy="712.84" r="2"/><circle class="cls-4" cx="340" cy="707.84" r="2"/><circle class="cls-4" cx="349" cy="701.84" r="2"/><circle class="cls-11" cx="392.06" cy="674.62" r="11.5"/><path class="cls-12" d="M485,496.84s41,10,46-34,1-249,1-249-8-22-22-16l-1,158a17.32,17.32,0,0,0,16-1l-3,103s-2,32-34,31Z"/><path class="cls-13" d="M321.5,367.84H6.5a6.52,6.52,0,0,1-6.5-6.5v-5a6.51,6.51,0,0,1,6.5-6.5h315a6.51,6.51,0,0,1,6.5,6.5v5A6.52,6.52,0,0,1,321.5,367.84Z"/><rect class="cls-14" x="66" y="338.84" width="224" height="11" rx="5.5"/><path d="M246,304.84l27-38s0-7-5-1-27.65,39.54-27.65,39.54Z"/><rect class="cls-15" x="419" y="498.84" width="9" height="232"/><path class="cls-2" d="M431,90.84s95,72,72,256c0,0-1,19-26,11s-50-14-71-13-38,31-68,21c0,0,17-16,22-33s19-209.76,19-209.76Z"/><g class="cls-16"><path class="cls-17" d="M25.88,169.47,245.68,23.34S380.94,87,317.63,338.84l-242.13-.5Z"/></g><path class="cls-8" d="M377,289.84l-18,39s-8,25-92,10c-35-10-26-13-50-6,0,0-7,8-35-11-11-7-17,4-17,4s-3,5-9,1c0,0-11,7-9-1s34-30,34-30,15-5,25,1,15,11,34,6c7.77-2,22.57-3.09,37.34-3.6,21.35-.75,42.66-.4,42.66-.4l10-29Z"/><path class="cls-18" d="M375,124.84s-35,67-46,147l54,27s55-78,51-120S375,124.84,375,124.84Z"/><path class="cls-19" d="M336,478.84s-3,19,16,20,133,0,133,0,13-3,10-22Z"/><path class="cls-20" d="M288.5,732.34a31,31,0,0,0,10,2c3.22,0,.67-17.39,0-20a19.52,19.52,0,0,0-3-2Z"/><path class="cls-21" d="M297,730.84s-4,3-18,2c-20-3-49,2-49,2-25,7-61-7-61-7s-7-3-4-12a11,11,0,0,1,6.06-7,12.69,12.69,0,0,1,5.94-1s5,1,31-3c27-8,42-43,42-43l42,2s-3,6,2,25c3,8.13,4,17,4.12,24.46A102.1,102.1,0,0,1,297,730.84Z"/><path class="cls-3" d="M297,730.84s-4,3-18,2c-20-3-49,2-49,2-25,7-61-7-61-7s-7-3-4-12a11,11,0,0,1,6.06-7c39.26,23.67,114.26,7.43,127.06,4.42A102.1,102.1,0,0,1,297,730.84Z"/><circle class="cls-4" cx="201" cy="711.84" r="2"/><circle class="cls-4" cx="214" cy="708.84" r="2"/><circle class="cls-4" cx="225" cy="703.84" r="2"/><circle class="cls-4" cx="235" cy="697.84" r="2"/><circle class="cls-4" cx="245" cy="690.84" r="2"/><circle class="cls-4" cx="253" cy="678.84" r="2"/><circle class="cls-11" cx="276.5" cy="690.34" r="11.5"/><path d="M300,19.84s8,23,34,14c5-1,6-2,4,2s5,18,17,19,15,19,15,19,36,5,39,2c0,0-10-48-20-54,0,0,4-16-20-21s-36,14-63,13C306,13.84,297,13.84,300,19.84Z"/><path class="cls-8" d="M390,86.84s-28,2-18-28c0,0,2-12,12-10s12,19,12,19S398,81.84,390,86.84Z"/><path d="M371,60.84a60.32,60.32,0,0,1-36,38s-1,7,6,6c0,0-22,16-13,37s16,19,16,19,28-31,48-66c0,0,5-5-8-8S371,72.84,371,60.84Z"/></g></g></svg>