<svg xmlns="http://www.w3.org/2000/svg" xmlns:xlink="http://www.w3.org/1999/xlink" viewBox="0 0 1551.5 1103.77"><defs><style>.cls-1{fill:url(#Degradado_sin_nombre_7);}.cls-2{fill:#000d6d;}.cls-3{fill:#ffd3ca;}.cls-4{fill:#ffb3b3;}.cls-5{fill:#f6e8f9;}.cls-6{fill:url(#Degradado_sin_nombre_49);}.cls-7{fill:url(#Degradado_sin_nombre_49-2);}.cls-8{fill:url(#Degradado_sin_nombre_50);}.cls-9{fill:url(#Degradado_sin_nombre_7-2);}.cls-10{fill:url(#Degradado_sin_nombre_49-3);}.cls-11,.cls-15,.cls-20,.cls-21{fill:none;stroke-miterlimit:10;}.cls-11,.cls-20{stroke-linecap:round;}.cls-11{stroke-width:10px;stroke:url(#Degradado_sin_nombre_49-4);}.cls-12{fill:url(#Degradado_sin_nombre_7-3);}.cls-13{fill:url(#Degradado_sin_nombre_7-4);}.cls-14{fill:url(#Degradado_sin_nombre_7-5);}.cls-15,.cls-21{stroke:#a02915;}.cls-15{stroke-width:0.75px;}.cls-16{fill:url(#Degradado_sin_nombre_7-6);}.cls-17{fill:url(#Degradado_sin_nombre_7-7);}.cls-18{fill:url(#Degradado_sin_nombre_8);}.cls-19{fill:url(#Degradado_sin_nombre_11);}.cls-20{stroke:#000;}.cls-22{fill:url(#Degradado_sin_nombre_11-2);}</style><linearGradient id="Degradado_sin_nombre_7" x1="59.68" y1="-33.17" x2="1709.41" y2="1035.05" gradientUnits="userSpaceOnUse"><stop offset="0" stop-color="#7135f2"/><stop offset="0.16" stop-color="#6d3af2"/><stop offset="0.35" stop-color="#6147f2"/><stop offset="0.55" stop-color="#4c5ef2"/><stop offset="0.75" stop-color="#307ef2"/><stop offset="0.96" stop-color="#0ca7f2"/><stop offset="1" stop-color="#05aff2"/></linearGradient><linearGradient id="Degradado_sin_nombre_49" x1="183.53" y1="1001.38" x2="186.04" y2="891.41" gradientUnits="userSpaceOnUse"><stop offset="0" stop-color="#c0ffff"/><stop offset="0.11" stop-color="#b3faff"/><stop offset="0.32" stop-color="#91ebff"/><stop offset="0.6" stop-color="#5ad4ff"/><stop offset="0.94" stop-color="#0fb4ff"/><stop offset="1" stop-color="#00aeff"/></linearGradient><linearGradient id="Degradado_sin_nombre_49-2" x1="120.67" y1="806.74" x2="203" y2="806.74" xlink:href="#Degradado_sin_nombre_49"/><linearGradient id="Degradado_sin_nombre_50" x1="135.54" y1="611.9" x2="131.99" y2="529.05" gradientUnits="userSpaceOnUse"><stop offset="0" stop-color="#c0ffff"/><stop offset="0.1" stop-color="#b3faff"/><stop offset="0.29" stop-color="#91ebff"/><stop offset="0.53" stop-color="#5ad4ff"/><stop offset="0.84" stop-color="#0fb4ff"/><stop offset="0.89" stop-color="#00aeff"/></linearGradient><linearGradient id="Degradado_sin_nombre_7-2" x1="173.84" y1="466.28" x2="338.92" y2="931.25" xlink:href="#Degradado_sin_nombre_7"/><linearGradient id="Degradado_sin_nombre_49-3" x1="96.57" y1="630.43" x2="241.5" y2="630.43" xlink:href="#Degradado_sin_nombre_49"/><linearGradient id="Degradado_sin_nombre_49-4" x1="145" y1="874.7" x2="213.5" y2="874.7" xlink:href="#Degradado_sin_nombre_49"/><linearGradient id="Degradado_sin_nombre_7-3" x1="134.32" y1="721.5" x2="346.6" y2="721.5" xlink:href="#Degradado_sin_nombre_7"/><linearGradient id="Degradado_sin_nombre_7-4" x1="1395.53" y1="805.76" x2="1509.53" y2="995.61" xlink:href="#Degradado_sin_nombre_7"/><linearGradient id="Degradado_sin_nombre_7-5" x1="1204.79" y1="1003.82" x2="1417.79" y2="1003.82" xlink:href="#Degradado_sin_nombre_7"/><linearGradient id="Degradado_sin_nombre_7-6" x1="116.32" y1="139.31" x2="180.29" y2="304.85" xlink:href="#Degradado_sin_nombre_7"/><linearGradient id="Degradado_sin_nombre_7-7" x1="273.23" y1="661.25" x2="663.79" y2="886.69" xlink:href="#Degradado_sin_nombre_7"/><linearGradient id="Degradado_sin_nombre_8" x1="441.84" y1="938.27" x2="491.82" y2="893.59" gradientUnits="userSpaceOnUse"><stop offset="0" stop-color="#7135f2"/><stop offset="0.18" stop-color="#6d3af2"/><stop offset="0.39" stop-color="#6147f2"/><stop offset="0.61" stop-color="#4d5ef2"/><stop offset="0.84" stop-color="#317ef2"/><stop offset="1" stop-color="#1999f2"/><stop offset="1" stop-color="#05aff2"/></linearGradient><linearGradient id="Degradado_sin_nombre_11" x1="233.58" y1="713.99" x2="166.74" y2="442.61" gradientUnits="userSpaceOnUse"><stop offset="0" stop-color="#05dbf2"/><stop offset="0.12" stop-color="#1adcf3"/><stop offset="0.36" stop-color="#50dff4"/><stop offset="0.7" stop-color="#a5e4f7"/><stop offset="1" stop-color="#f6e8f9"/></linearGradient><linearGradient id="Degradado_sin_nombre_11-2" x1="215.39" y1="526.57" x2="171.63" y2="438.62" xlink:href="#Degradado_sin_nombre_11"/></defs><g id="Capa_2" data-name="Capa 2"><g id="Capa_1-2" data-name="Capa 1"><path class="cls-1" d="M54.5,2.5s99,38,129,103,136,112,136,112,180,70,4,165l-11,36s167,58,233,195c64.63,134.16,51.45,196.21-53,314-3,3.35-24.53,19.08-31,24-26.49,20.14-97.25,73.94-104,133l4,2,1190,7-7-584-3-508Z"/><path class="cls-2" d="M298.79,441.05l-12.9-7.44a7.36,7.36,0,0,1-3.22-8.94l21-56.21a7.35,7.35,0,0,1,7.14-4.78l13.76.48a7.35,7.35,0,0,1,6.7,9.75l-21.84,63.17A7.35,7.35,0,0,1,298.79,441.05Z"/><path class="cls-3" d="M230.2,538.76S269,571,282,499a206.54,206.54,0,0,1,13-45l12-13,4-11-21-3-22,33-25,51Z"/><path class="cls-4" d="M225,539.31s39.76,9.42,60.51-94.81Z"/><path class="cls-4" d="M308.5,433.5s-1.39.78-3,4c-1,2-8,9-8,9l-12,9-5,8,2-13Z"/><path class="cls-3" d="M220,835l-13,11,9,28,23,16,4-3s-9-30-8-40-14-12-14-12Z"/><path class="cls-3" d="M313,932l38-7,12-17s-15,5-39-8l-19,12Z"/><path class="cls-5" d="M324,943s55-17,60-24c0,0,21-31-34-11,0,0,33,3-40,20C310,928,314,945,324,943Z"/><ellipse class="cls-6" cx="185" cy="937" rx="55" ry="10"/><path class="cls-7" d="M120.67,679.69S172,726,172,929c0,0,14,12,26-2,0,0-24-149,5-221Z"/><path class="cls-8" d="M157,628s-22.85-100.79-40.93-72.39L115,617l18,58s18-14,18-16S157,628,157,628Z"/><path class="cls-9" d="M237.5,570.5s-3,23,29.5,67.5c32.7,44.77,36,140,36,140l24,123s-3,12-22,12c0,0-27-54-32-96l-9-43L216,674l-33-77Z"/><path class="cls-3" d="M239,307s6.5,11.5,0,26c0,0-.5.5,1,18,0,0-10,2-10,3s-3,34-30,22-35-17-35-17S167,289,239,307Z"/><path class="cls-3" d="M201,373s-9.5,17.5-3.5,33.5L167,391l1-34Z"/><path class="cls-10" d="M241.5,689.5S116,681,119,551c0,0-72,107,42,157C161,708,208.5,718.5,241.5,689.5Z"/><path class="cls-11" d="M160.62,866.38c-7,1.66-10.53,4.5-10.62,7.6-.15,5,13.1,9,29.25,9s29.25-4,29.25-9c0-3.16-5.26-5.87-13.22-7.48"/><path class="cls-12" d="M138,590s-23,63,46,85,106,25,106,25,14,5,4,16L219,835l17,18,77-84s66-77,13-111c0,0-38-28-67-36,0,0-39-10-47-27Z"/><path class="cls-13" d="M1364.57,773.16s-21.73,15.87,15.21,49.18c0,0,16,11.53,8.66,17.15s-27.35-10.86-27.35-10.86-19.68-13.33-32.24,7.53,28.35,49.9,44.26,47.11,16.39,9.57,16.39,9.57,1.19,18.65-23.43,9.39c-14.48-4.07-16,13-16,13s-1,24.31,42.87,29.44c0,0,19.18.3,19.68,13.33.31,8.24-11.07,8.92-11.07,8.92-1.36.61-11.29-1.14-11.89,12.83,0,0-2.21,25.08,39.82,19.6,0,0,75.55-4.56,76.65,43.69,0,0-1.25-33,8.53-50.32,0,0,49-77.58,28.13-90.14,0,0-7.78-6.74-16.68,1.61,0,0-15.09,18.29-18.14-11,0,0-.94-24.72,4.31-40s13.37-44.19-10.16-44c0,0-9-.68-17.45,19.84-6.23,15-20.5,10-17-6.64,0,0,6.26-39.55-24.17-35.73,0,0-12.78,2.43-16.11,23.18,0,0-5.46,16.23-16.69,1.61a40.23,40.23,0,0,1-9.64-17.35C1398.31,783.69,1388.61,760.84,1364.57,773.16Z"/><path class="cls-14" d="M1207.15,935.92s11.53-19,38.08,15c0,0,9.29,14.59,13.38,8.22s-9.09-24.76-9.09-24.76-10.77-18,4.84-28.6,39,26.73,37.33,40.87,7.79,14.91,7.79,14.91,14.31,1.59,6.52-20.68c-3.52-13.05,9.48-14,9.48-14s18.58-.23,23.77,39.14c0,0,.77,17.15,10.76,18,6.32.51,6.51-9.65,6.51-9.65.44-1.19-1.19-10.12,9.48-10.27,0,0,19.14-1.27,16.15,36.14,0,0-1.34,67.4,35.64,69.73,0,0-25.27-2-38.28,6.22,0,0-58,41.63-68.21,22.63a12.23,12.23,0,0,1,.75-14.87s13.57-13-8.91-16.51c0,0-19-1.53-30.47,2.74s-33.45,10.72-34-10.32c0,0-.78-8,14.69-15,11.34-5.15,7.07-18-5.57-15.38,0,0-30.1,4.5-28-22.6,0,0,1.49-11.35,17.28-13.75,0,0,12.27-4.42.76-14.87a33.31,33.31,0,0,0-13.56-9.1C1216.17,966.37,1198.41,957.07,1207.15,935.92Z"/><path class="cls-15" d="M1393.94,818.16s96.9,109.43,111.89,217.23"/><path class="cls-15" d="M1442.62,834.52s6.55,12.61-9.36,34.82"/><path class="cls-15" d="M1390.77,862.45a49.9,49.9,0,0,0,42.49,6.89"/><path class="cls-15" d="M1472.71,866.39s7.27,18.89-13.57,45.17"/><path class="cls-15" d="M1417.73,914.1s21.43,14.72,41.41-2.54"/><path class="cls-15" d="M1497,930.75s1.81,15.71-13.23,28.9"/><path class="cls-15" d="M1440.67,955.7s27.76,8.9,43.1,3.95"/><path class="cls-15" d="M1504.89,966.13s2.84,10.82-9.26,24.62"/><path class="cls-15" d="M1242.5,964.5s77.62,84.66,148.07,99.9"/><path class="cls-15" d="M1256.66,1006.13s8.6,5.84,21.69-7.11"/><path class="cls-15" d="M1270.75,962.85a56.82,56.82,0,0,1,7.6,36.17"/><path class="cls-15" d="M1279.4,1032.37s12.7,6.6,28-10.44"/><path class="cls-15" d="M1306,986.91s11.07,18.5,1.46,35"/><path class="cls-15" d="M1322.61,1054.46s10.24,1.9,17.6-10.53"/><path class="cls-15" d="M1334.45,1007.32s7.8,23.73,5.76,36.61"/><path class="cls-16" d="M0,4S81,23,110,107c0,0,19,71,50,63S197,84,37,0Z"/><path class="cls-17" d="M424,691s-30,31,40,73,35,106,35,106-9,21,3,17,25-23,25-23,39-57,8-119S453,662,424,691Z"/><circle class="cls-18" cx="478.5" cy="905.5" r="11.5"/><path class="cls-19" d="M166,388s61,25,71,66c0,0,3,6-3,25v50l8,64s-57,25-106-1c0,0,11-19,6-87,0,0-35-74,5-115Z"/><path class="cls-3" d="M217,541s30.56,12.42,63.69-77.56q1.15-3.13,2.31-6.44s0-3,6-6,13-13,13-13,5-5,8-3,6,1,3-2-5-5-11-1c-1,1-4.29.19,0-4a32.19,32.19,0,0,1,9-6c6.09-2.73,6.05-7.47-2-4-6,3-6.88,4.13-12,7-6.64,3.73-5.17-2.17-2-4,3-2,9.14-6.76,11-8,3-2,5-7-2-4s-14,5-24,16c0,0-7,12-10,21,0,0-17,30-49,57Z"/><path class="cls-5" d="M199,859s29,56,35,54c0,0,23.47,7,6.73-35.5,0,0,5.27,31.5-34.73-32.5C206,845,196,853,199,859Z"/><path class="cls-20" d="M226.5,327.5s7-4,12,1"/><circle cx="231.75" cy="333.91" r="3.07"/><path class="cls-21" d="M1349.91,840.43a7.11,7.11,0,0,0,1.48,2.08,2.61,2.61,0,0,0,2.37.65,2.69,2.69,0,0,0,1.54-3.15,7.59,7.59,0,0,0-2-3.27,5.88,5.88,0,0,0-2.45-2c-.92-.3-2.6.1-2.68,1.29a5.81,5.81,0,0,0,.65,2.2A21.44,21.44,0,0,0,1349.91,840.43Z"/><path class="cls-21" d="M1335.46,844.48a7.13,7.13,0,0,0,.44,2.51,2.62,2.62,0,0,0,1.85,1.61,2.69,2.69,0,0,0,2.76-2.17,7.61,7.61,0,0,0-.36-3.8,5.69,5.69,0,0,0-1.36-2.82c-.7-.67-2.39-1-3,0a5.61,5.61,0,0,0-.36,2.27C1335.41,842.88,1335.43,843.68,1335.46,844.48Z"/><path class="cls-21" d="M1349.27,852.26a4.24,4.24,0,0,0,.25,1.42,1.49,1.49,0,0,0,1,.91,1.53,1.53,0,0,0,1.57-1.23,4.39,4.39,0,0,0-.2-2.15,3.3,3.3,0,0,0-.78-1.6c-.4-.38-1.35-.59-1.68,0a3.27,3.27,0,0,0-.21,1.29A12.34,12.34,0,0,0,1349.27,852.26Z"/><path class="cls-21" d="M1362.27,841.26a4.24,4.24,0,0,0,.25,1.42,1.49,1.49,0,0,0,1,.91,1.53,1.53,0,0,0,1.57-1.23,4.39,4.39,0,0,0-.2-2.15,3.3,3.3,0,0,0-.78-1.6c-.4-.38-1.35-.59-1.68,0a3.27,3.27,0,0,0-.21,1.29A12.34,12.34,0,0,0,1362.27,841.26Z"/><path class="cls-21" d="M1340.82,856.73a2.56,2.56,0,0,0,.28.94,1.09,1.09,0,0,0,.8.57,1,1,0,0,0,1-.88,2.93,2.93,0,0,0-.3-1.43,2.31,2.31,0,0,0-.67-1c-.3-.24-1-.34-1.18.06a2.12,2.12,0,0,0,0,.87A6.88,6.88,0,0,0,1340.82,856.73Z"/><path class="cls-21" d="M1372,923a6.92,6.92,0,0,0-.38-2.52,2.64,2.64,0,0,0-1.82-1.65A2.68,2.68,0,0,0,1367,921a7.59,7.59,0,0,0,.27,3.8,5.81,5.81,0,0,0,1.31,2.85c.69.68,2.36,1.08,3,.06a5.77,5.77,0,0,0,.41-2.26C1372,924.64,1372,923.84,1372,923Z"/><path class="cls-21" d="M1386.69,925.93a7.11,7.11,0,0,0,.74-2.44,2.61,2.61,0,0,0-.93-2.27,2.68,2.68,0,0,0-3.44.7,7.52,7.52,0,0,0-1.39,3.55,5.75,5.75,0,0,0-.06,3.13c.33.91,1.67,2,2.66,1.34a5.83,5.83,0,0,0,1.34-1.87A21.43,21.43,0,0,0,1386.69,925.93Z"/><path class="cls-21" d="M1377.85,912.77a4.06,4.06,0,0,0,.42-1.39,1.49,1.49,0,0,0-.52-1.29,1.54,1.54,0,0,0-2,.4,4.31,4.31,0,0,0-.78,2,3.27,3.27,0,0,0,0,1.78c.18.52.94,1.13,1.5.76a3.22,3.22,0,0,0,.76-1.06A11.42,11.42,0,0,0,1377.85,912.77Z"/><path class="cls-21" d="M1361.29,916.74a4,4,0,0,0,.42-1.39,1.49,1.49,0,0,0-.52-1.29,1.53,1.53,0,0,0-2,.4,4.25,4.25,0,0,0-.79,2,3.23,3.23,0,0,0,0,1.77c.18.52.94,1.13,1.5.76a3.29,3.29,0,0,0,.77-1.06C1360.91,917.56,1361.11,917.15,1361.29,916.74Z"/><path class="cls-21" d="M1387.42,912.57a2.63,2.63,0,0,0,.17-1,1.09,1.09,0,0,0-.46-.87,1,1,0,0,0-1.29.33,2.94,2.94,0,0,0-.38,1.41,2.35,2.35,0,0,0,.13,1.23c.17.34.73.74,1.08.47a2.16,2.16,0,0,0,.43-.75A6.86,6.86,0,0,0,1387.42,912.57Z"/><path class="cls-21" d="M1261.18,925a5.29,5.29,0,0,0-.28-1.82,1.9,1.9,0,0,0-1.32-1.19,1.94,1.94,0,0,0-2,1.52,5.49,5.49,0,0,0,.2,2.75,4.07,4.07,0,0,0,.94,2.06c.5.49,1.71.78,2.15,0a4.25,4.25,0,0,0,.29-1.63A16.65,16.65,0,0,0,1261.18,925Z"/><path class="cls-21" d="M1271.82,927.1a5.32,5.32,0,0,0,.53-1.77,1.9,1.9,0,0,0-.67-1.64,1.94,1.94,0,0,0-2.49.51,5.47,5.47,0,0,0-1,2.56,4.17,4.17,0,0,0,0,2.27c.24.66,1.2,1.44,1.92,1a4.19,4.19,0,0,0,1-1.34C1271.33,928.15,1271.58,927.62,1271.82,927.1Z"/><path class="cls-21" d="M1265.43,917.58a2.75,2.75,0,0,0,.3-1,1.06,1.06,0,0,0-.38-.93,1.11,1.11,0,0,0-1.41.29,3.22,3.22,0,0,0-.57,1.46,2.42,2.42,0,0,0,0,1.28c.14.37.69.82,1.09.55a2.36,2.36,0,0,0,.55-.77A7.22,7.22,0,0,0,1265.43,917.58Z"/><path class="cls-21" d="M1253.47,920.45a2.91,2.91,0,0,0,.3-1,1,1,0,0,0-1.79-.65,3,3,0,0,0-.57,1.46,2.42,2.42,0,0,0,0,1.28c.14.37.69.82,1.09.55a2.22,2.22,0,0,0,.55-.77A9.1,9.1,0,0,0,1253.47,920.45Z"/><path class="cls-21" d="M1272.34,917.44a1.8,1.8,0,0,0,.13-.69.82.82,0,0,0-.34-.63.71.71,0,0,0-.93.24,2.07,2.07,0,0,0-.27,1,1.74,1.74,0,0,0,.09.88c.12.26.53.54.78.34a1.46,1.46,0,0,0,.32-.54A6.5,6.5,0,0,0,1272.34,917.44Z"/><path class="cls-21" d="M1364.87,985.72a5.18,5.18,0,0,0,1.84.06,1.91,1.91,0,0,0,1.41-1.07,2,2,0,0,0-1.13-2.28,5.61,5.61,0,0,0-2.74-.31,4.2,4.2,0,0,0-2.19.55c-.58.4-1.08,1.53-.44,2.1a4.06,4.06,0,0,0,1.55.59A16.57,16.57,0,0,0,1364.87,985.72Z"/><path class="cls-21" d="M1360.85,995.79a5.19,5.19,0,0,0,1.63.85,1.71,1.71,0,0,0,1.7-2.9,5.54,5.54,0,0,0-2.33-1.46,4.15,4.15,0,0,0-2.22-.45c-.69.11-1.64.92-1.3,1.71a4.2,4.2,0,0,0,1.14,1.2A17.3,17.3,0,0,0,1360.85,995.79Z"/><path class="cls-21" d="M1371.38,991.27a2.7,2.7,0,0,0,.92.48,1.06,1.06,0,0,0,1-.2,1.11,1.11,0,0,0,0-1.44,3.17,3.17,0,0,0-1.33-.83,2.43,2.43,0,0,0-1.26-.26c-.39.07-.92.52-.73,1a2.11,2.11,0,0,0,.65.68A7.68,7.68,0,0,0,1371.38,991.27Z"/><path class="cls-21" d="M1370.77,979a2.7,2.7,0,0,0,.92.48,1.09,1.09,0,0,0,1-.2,1.11,1.11,0,0,0,0-1.44,3.17,3.17,0,0,0-1.33-.83,2.43,2.43,0,0,0-1.26-.26c-.39.07-.93.52-.74,1a2.34,2.34,0,0,0,.65.68A9.12,9.12,0,0,0,1370.77,979Z"/><path class="cls-21" d="M1370.24,998.09a2,2,0,0,0,.66.25.8.8,0,0,0,.68-.21.71.71,0,0,0-.07-1,2,2,0,0,0-1-.46,1.65,1.65,0,0,0-.88-.07c-.27.07-.63.42-.48.7a1.33,1.33,0,0,0,.47.41A6.59,6.59,0,0,0,1370.24,998.09Z"/><path class="cls-21" d="M1217.61,946.36a4.79,4.79,0,0,0,1.77.06,1.81,1.81,0,0,0,1.36-1,1.86,1.86,0,0,0-1.09-2.18,5.3,5.3,0,0,0-2.63-.3,4,4,0,0,0-2.11.53c-.55.38-1,1.47-.42,2a4.07,4.07,0,0,0,1.49.56A14.72,14.72,0,0,0,1217.61,946.36Z"/><path class="cls-21" d="M1213.75,956a4.91,4.91,0,0,0,1.57.82,1.82,1.82,0,0,0,1.67-.35,1.85,1.85,0,0,0,0-2.43,5.35,5.35,0,0,0-2.24-1.41,4.13,4.13,0,0,0-2.14-.44c-.66.11-1.57.89-1.25,1.65a4.3,4.3,0,0,0,1.1,1.15A16.6,16.6,0,0,0,1213.75,956Z"/><path class="cls-21" d="M1223.86,951.7a2.9,2.9,0,0,0,.89.46,1,1,0,0,0,1-.19,1,1,0,0,0,0-1.38,3,3,0,0,0-1.27-.8,2.26,2.26,0,0,0-1.21-.25c-.38.06-.89.5-.71.93a2.29,2.29,0,0,0,.62.66C1223.35,951.33,1223.61,951.52,1223.86,951.7Z"/><path class="cls-21" d="M1223.28,939.89a2.69,2.69,0,0,0,.89.46,1,1,0,0,0,.94-.19,1,1,0,0,0,0-1.38,2.9,2.9,0,0,0-1.27-.8,2.26,2.26,0,0,0-1.21-.25c-.38.06-.89.5-.71.93a2.29,2.29,0,0,0,.62.66C1222.76,939.52,1223,939.71,1223.28,939.89Z"/><path class="cls-21" d="M1222.77,958.25a1.84,1.84,0,0,0,.64.24.77.77,0,0,0,.65-.2.7.7,0,0,0-.06-.93,2,2,0,0,0-.92-.43,1.54,1.54,0,0,0-.85-.07c-.26.07-.6.4-.46.68a1.47,1.47,0,0,0,.46.39A4.8,4.8,0,0,0,1222.77,958.25Z"/><path class="cls-22" d="M164.33,410.59S128,436,168,494s57,50,57,50-3-42-2-44C223,500,208.66,401.17,164.33,410.59Z"/><path d="M168.5,363.5S184,352,188,344c0,0-5.5-27.5,13-15l1.5,2.5a12.27,12.27,0,0,1,11-7s27-1,31-22c0,0,0-36-48-33,0,0-29,7-34,22,0,0-23.5-5.5-35.5,6.5s-12,44-12,44,4,61-8,66-18,43-1,44,47-16,55-34,10-56,6-68"/></g></g></svg>