<svg id="Capa_1" data-name="Capa 1" xmlns="http://www.w3.org/2000/svg" viewBox="0 0 600.33 281.33"><defs><style>.cls-1{fill:#05aff2;stroke:#05aff2;}.cls-1,.cls-2{stroke-miterlimit:10;stroke-width:2px;}.cls-2{fill:#7135f2;stroke:#7135f2;}</style></defs><title>LOGO COLOR</title><path class="cls-1" d="M221.18,119.45q-11.34-11.7-11.35-27.35T221.33,65a38.93,38.93,0,0,1,55.1,0,37.07,37.07,0,0,1,11.4,27.15,38,38,0,0,1-11.3,27.4q-11.29,11.64-27,11.65H248Q232.53,131.15,221.18,119.45ZM284.53,92.3A34.65,34.65,0,0,0,274.08,67a35.43,35.43,0,0,0-50.45,0,34.57,34.57,0,0,0-10.5,25.3,34.77,34.77,0,0,0,10.5,25.35,35.25,35.25,0,0,0,50.4,0A34.77,34.77,0,0,0,284.53,92.3Z"/><path class="cls-1" d="M304.83,129.85h-3.2v-45h3.2V94q5.1-10.2,17.4-10.2a19,19,0,0,1,14.1,5.8,19.34,19.34,0,0,1,5.7,14.1v26.2h-3.2v-26.2a16.82,16.82,0,0,0-4.85-12,15.61,15.61,0,0,0-11.75-5.1,16.92,16.92,0,0,0-12.15,5.1,16.2,16.2,0,0,0-5.25,12Z"/><path class="cls-1" d="M374.43,128v2.8a17,17,0,0,1-12.1-4.75,16,16,0,0,1-5-12.15v-59h3.2v59a13.75,13.75,0,0,0,13.9,14.1Z"/><path class="cls-1" d="M430.63,84.85v45h-3.2v-11.2a21.07,21.07,0,0,1-8.4,9,23.66,23.66,0,0,1-28.8-3.65,23.3,23.3,0,0,1,0-33.3,23,23,0,0,1,16.8-7,24,24,0,0,1,12.25,3.4,18.37,18.37,0,0,1,8.15,9V84.85Zm-44.2,22.6a21,21,0,0,0,20.75,20.7A19.46,19.46,0,0,0,421.63,122a20.76,20.76,0,0,0-.05-29.25,19.46,19.46,0,0,0-14.45-6.2,19.72,19.72,0,0,0-14.55,6.25A20.21,20.21,0,0,0,386.43,107.45Z"/><path class="cls-1" d="M462,127.65v2.8a16.94,16.94,0,0,1-12.1-4.75,16,16,0,0,1-5-12.15V66.75h3.2V85h13.8v2.8h-13.8v25.8a13.75,13.75,0,0,0,13.9,14.1Z"/><path class="cls-1" d="M476.23,74c-1.94,0-2.9-.9-2.9-2.7s1-2.7,2.9-2.7,2.9.9,2.9,2.7S478.16,74,476.23,74Zm1.6,11v44.9h-3.2V85Z"/><path class="cls-1" d="M497.63,129.85h-3.2v-45h3.2V94q5.1-10.2,17.4-10.2a19,19,0,0,1,14.1,5.8,19.34,19.34,0,0,1,5.7,14.1v26.2h-3.2v-26.2a16.86,16.86,0,0,0-4.85-12A15.63,15.63,0,0,0,515,86.55a16.92,16.92,0,0,0-12.15,5.1,16.2,16.2,0,0,0-5.25,12Z"/><path class="cls-2" d="M223.35,142.07h26.7V145h-23.4v40.6h19.5v2.9h-19.5v28.6h-3.3Z"/><path class="cls-2" d="M306.75,172.07v45h-3.2v-11.2a21.07,21.07,0,0,1-8.4,9,23.28,23.28,0,0,1-12,3.3,23,23,0,0,1-16.8-6.95,23.3,23.3,0,0,1,0-33.3,23,23,0,0,1,16.8-6.95,24.11,24.11,0,0,1,12.25,3.4,18.5,18.5,0,0,1,8.15,9v-11.3Zm-44.2,22.6a21,21,0,0,0,20.75,20.7,19.46,19.46,0,0,0,14.45-6.15A20.76,20.76,0,0,0,297.7,180a19.51,19.51,0,0,0-14.45-6.2A19.76,19.76,0,0,0,268.7,180,20.23,20.23,0,0,0,262.55,194.67Z"/><path class="cls-2" d="M325.25,217.07h-3.2v-45h3.2v9.1q5.08-10.2,17.39-10.2a19,19,0,0,1,14.11,5.8,19.38,19.38,0,0,1,5.7,14.1v26.2h-3.2v-26.2a16.83,16.83,0,0,0-4.86-12,15.6,15.6,0,0,0-11.75-5.1,16.91,16.91,0,0,0-12.14,5.1,16.2,16.2,0,0,0-5.25,12Z"/><path class="cls-2" d="M387.54,173.67a6.93,6.93,0,0,0-4.6,1.7,5.33,5.33,0,0,0-2,4.2,6.22,6.22,0,0,0,2.25,4.6,27,27,0,0,0,5.4,3.85q3.15,1.75,6.35,3.75a19.46,19.46,0,0,1,5.45,5.1,11.8,11.8,0,0,1,2.25,7.1A13.21,13.21,0,0,1,398.19,214a15.17,15.17,0,0,1-10.75,4.15,16.21,16.21,0,0,1-7.45-1.75,11.41,11.41,0,0,1-5.05-4.65V207q3.81,8.4,12.2,8.4a12.54,12.54,0,0,0,8.75-3.2,9.46,9.46,0,0,0,3.55-7.15,10,10,0,0,0-2.25-6.65,20.88,20.88,0,0,0-5.45-4.6L385.39,190a20.76,20.76,0,0,1-5.4-4.5,9.26,9.26,0,0,1-2.25-6.2,7.64,7.64,0,0,1,2.85-6,10.89,10.89,0,0,1,7.35-2.45,10.07,10.07,0,0,1,7.7,3.5v4.1Q392.45,173.67,387.54,173.67Z"/><path class="cls-1" d="M181.72,163.18a53.89,53.89,0,1,1-80.44-46.89v9.43a6.52,6.52,0,0,1-2.22,4.85,43.49,43.49,0,1,0,57.5,0,6.44,6.44,0,0,1-2.22-4.84v-9.41A53.84,53.84,0,0,1,181.72,163.18Z"/><path class="cls-1" d="M165.67,95.89v23.83a58.6,58.6,0,0,0-8.18-6,6.42,6.42,0,0,1-3.15-5.49V95.89c0-29-24.09-29.81-26.83-29.81s-12.19.52-18.88,7.27c-5,5-7.44,12.58-7.35,22.48v12.46a6.44,6.44,0,0,1-3.15,5.5,58,58,0,0,0-8.18,6V95.89c-.12-13,3.45-23.27,10.63-30.52,9.77-9.86,23.08-10.63,26.93-10.63C140.71,54.74,165.67,63.34,165.67,95.89Z"/><path class="cls-2" d="M124.38,146.9l-1.28-1.28a12.64,12.64,0,0,0-17.87,0h0a14.87,14.87,0,0,0,0,21l19,19a5,5,0,0,0,7.15,0l18.94-18.94a14.92,14.92,0,0,0,0-21.12h0a12.58,12.58,0,0,0-17.79,0l-1.3,1.31A4.87,4.87,0,0,1,124.38,146.9Z"/></svg>