<svg id="Capa_1" data-name="Capa 1" xmlns="http://www.w3.org/2000/svg" viewBox="0 0 192.33 222.33"><defs><style>.cls-1{fill:#fff;stroke:#fff;stroke-miterlimit:10;stroke-width:2px;}</style></defs><title>IMAGOTIPO WHT</title><path class="cls-1" d="M149.72,132.18A53.89,53.89,0,1,1,69.28,85.29v9.43a6.52,6.52,0,0,1-2.22,4.85,43.49,43.49,0,1,0,57.5,0,6.44,6.44,0,0,1-2.22-4.84V85.27A53.84,53.84,0,0,1,149.72,132.18Z"/><path class="cls-1" d="M133.67,64.89V88.72a58.6,58.6,0,0,0-8.18-6,6.42,6.42,0,0,1-3.15-5.49V64.89c0-29-24.09-29.81-26.83-29.81s-12.19.52-18.88,7.27c-5,5-7.44,12.58-7.35,22.48V77.29a6.46,6.46,0,0,1-3.15,5.5,58,58,0,0,0-8.18,6V64.89c-.12-13,3.45-23.27,10.63-30.52,9.77-9.86,23.08-10.63,26.93-10.63C108.71,23.74,133.67,32.34,133.67,64.89Z"/><path class="cls-1" d="M92.65,116.17l-1.55-1.55a12.64,12.64,0,0,0-17.87,0h0a14.87,14.87,0,0,0,0,21l18.82,18.81a5.34,5.34,0,0,0,7.57,0l18.74-18.74a14.9,14.9,0,0,0,0-21.09l0,0a12.58,12.58,0,0,0-17.79,0L99,116.17A4.47,4.47,0,0,1,92.65,116.17Z"/></svg>