<?xml version="1.0" encoding="utf-8"?>
<!-- Generator: Adobe Illustrator 25.2.0, SVG Export Plug-In . SVG Version: 6.00 Build 0)  -->
<svg version="1.1" id="Capa_1" xmlns="http://www.w3.org/2000/svg" xmlns:xlink="http://www.w3.org/1999/xlink" x="0px" y="0px"
	 viewBox="0 0 600.3 281.3" style="enable-background:new 0 0 600.3 281.3;" xml:space="preserve">
<style type="text/css">
	.st0{enable-background:new    ;}
	.st1{fill:#FFFFFF;}
	.st2{fill:#FFFFFF;stroke:#FFFFFF;stroke-width:2;stroke-miterlimit:10;}
</style>
<g class="st0">
	<path class="st1" d="M221.2,119.4c-7.6-7.8-11.4-16.9-11.4-27.3c0-10.4,3.8-19.5,11.5-27.1c7.7-7.6,16.9-11.5,27.6-11.5
		c10.7,0,19.9,3.8,27.5,11.4c7.6,7.6,11.4,16.7,11.4,27.2s-3.8,19.6-11.3,27.4c-7.5,7.8-16.5,11.6-27,11.6H248
		C237.7,131.1,228.7,127.3,221.2,119.4z M284.5,92.3c0-9.8-3.5-18.3-10.5-25.3c-7-7-15.4-10.6-25.2-10.6c-9.8,0-18.2,3.5-25.2,10.6
		c-7,7-10.5,15.5-10.5,25.3c0,9.8,3.5,18.3,10.5,25.3c7,7.1,15.4,10.6,25.2,10.6s18.2-3.5,25.2-10.6
		C281,110.6,284.5,102.1,284.5,92.3z"/>
	<path class="st1" d="M304.5,129.9h-3.2v-45h3.2v9.1c3.4-6.8,9.2-10.2,17.4-10.2c5.6,0,10.3,1.9,14.1,5.8c3.8,3.9,5.7,8.6,5.7,14.1
		v26.2h-3.2v-26.2c0-4.6-1.6-8.6-4.8-12c-3.2-3.4-7.2-5.1-11.8-5.1c-4.6,0-8.7,1.7-12.2,5.1c-3.5,3.4-5.2,7.4-5.2,12V129.9z"/>
	<path class="st1" d="M373.8,127.9v2.8c-4.7,0-8.8-1.6-12.1-4.8c-3.3-3.2-5-7.2-5-12.2v-59h3.2v59c0,4.1,1.3,7.4,4,10.1
		C366.7,126.6,370,127.9,373.8,127.9z"/>
	<path class="st1" d="M425.7,84.9v45h-3.2v-11.2c-1.9,3.8-4.7,6.8-8.4,9c-3.7,2.2-7.7,3.3-12,3.3c-6.5,0-12.1-2.3-16.8-6.9
		c-4.7-4.6-7-10.2-7-16.7c0-6.5,2.3-12,7-16.7c4.7-4.6,10.3-6.9,16.8-6.9c4.3,0,8.3,1.1,12.2,3.4c3.9,2.3,6.6,5.3,8.2,9V84.9H425.7z
		 M381.5,107.4c0,5.6,2,10.5,6.1,14.6c4.1,4.1,9,6.1,14.6,6.1c5.6,0,10.4-2,14.4-6.1c4-4.1,6-9,6-14.6c0-5.6-2-10.5-6-14.6
		c-4-4.1-8.8-6.2-14.5-6.2c-5.6,0-10.4,2.1-14.5,6.2C383.6,97,381.5,101.9,381.5,107.4z"/>
	<path class="st1" d="M456.8,127.6v2.8c-4.7,0-8.8-1.6-12.1-4.8c-3.3-3.2-5-7.2-5-12.1V66.8h3.2v18.2h13.8v2.8h-13.8v25.8
		c0,4.1,1.3,7.4,4,10.1C449.7,126.3,453,127.6,456.8,127.6z"/>
	<path class="st1" d="M470.7,73.9c-1.9,0-2.9-0.9-2.9-2.7c0-1.8,1-2.7,2.9-2.7s2.9,0.9,2.9,2.7C473.6,73.1,472.7,73.9,470.7,73.9z
		 M472.3,84.9v44.9h-3.2V84.9H472.3z"/>
</g>
<g class="st0">
	<path class="st1" d="M497.6,129.9h-3.2v-45h3.2v9.1c3.4-6.8,9.2-10.2,17.4-10.2c5.6,0,10.3,1.9,14.1,5.8c3.8,3.9,5.7,8.6,5.7,14.1
		v26.2h-3.2v-26.2c0-4.6-1.6-8.6-4.9-12c-3.2-3.4-7.1-5.1-11.8-5.1c-4.6,0-8.6,1.7-12.1,5.1c-3.5,3.4-5.2,7.4-5.2,12V129.9z"/>
</g>
<g class="st0">
	<path class="st1" d="M223.4,142.1h26.7v2.9h-23.4v40.6h19.5v2.9h-19.5v28.6h-3.3V142.1z"/>
	<path class="st1" d="M306.4,172.1v45h-3.2v-11.2c-1.9,3.8-4.7,6.8-8.4,9c-3.7,2.2-7.7,3.3-12,3.3c-6.5,0-12.1-2.3-16.8-6.9
		c-4.7-4.6-7-10.2-7-16.7c0-6.5,2.3-12,7-16.7c4.7-4.6,10.3-6.9,16.8-6.9c4.3,0,8.4,1.1,12.2,3.4c3.9,2.3,6.6,5.3,8.2,9v-11.3H306.4
		z M262.2,194.7c0,5.6,2,10.5,6.1,14.6c4.1,4.1,9,6.1,14.6,6.1c5.6,0,10.4-2,14.4-6.1c4-4.1,6-9,6-14.6c0-5.6-2-10.5-6-14.6
		c-4-4.1-8.9-6.2-14.5-6.2s-10.4,2.1-14.5,6.2C264.3,184.2,262.2,189.1,262.2,194.7z"/>
	<path class="st1" d="M324.6,217.1h-3.2v-45h3.2v9.1c3.4-6.8,9.2-10.2,17.4-10.2c5.6,0,10.3,1.9,14.1,5.8c3.8,3.9,5.7,8.6,5.7,14.1
		v26.2h-3.2v-26.2c0-4.6-1.6-8.6-4.8-12c-3.2-3.4-7.2-5.1-11.8-5.1c-4.6,0-8.7,1.7-12.2,5.1c-3.5,3.4-5.2,7.4-5.2,12V217.1z"/>
</g>
<g class="st0">
	<path class="st1" d="M387.5,173.7c-1.7,0-3.3,0.6-4.6,1.7c-1.3,1.1-2,2.5-2,4.2c0,1.7,0.8,3.2,2.2,4.6c1.5,1.4,3.3,2.7,5.4,3.9
		c2.1,1.2,4.2,2.4,6.4,3.8c2.1,1.3,4,3,5.5,5.1c1.5,2.1,2.2,4.4,2.2,7.1c0,3.9-1.5,7.3-4.5,10c-3,2.8-6.5,4.1-10.8,4.1
		c-2.7,0-5.2-0.6-7.5-1.8c-2.3-1.2-4-2.7-5-4.6V207c2.5,5.6,6.6,8.4,12.2,8.4c3.5,0,6.4-1.1,8.8-3.2c2.4-2.1,3.5-4.5,3.5-7.1
		c0-2.6-0.8-4.9-2.2-6.7s-3.3-3.3-5.5-4.6c-2.1-1.3-4.2-2.5-6.3-3.8c-2.1-1.2-3.9-2.7-5.4-4.5c-1.5-1.8-2.2-3.8-2.2-6.2
		c0-2.4,1-4.4,2.8-6c1.9-1.6,4.4-2.5,7.4-2.5s5.6,1.2,7.7,3.5v4.1C393.5,175.3,390.8,173.7,387.5,173.7z"/>
</g>
<path class="st2" d="M181.7,163.2c0,29.8-24.1,53.9-53.9,53.9c-29.8,0-53.9-24.1-53.9-53.9c0-19.4,10.4-37.3,27.3-46.9v9.4
	c0,1.9-0.8,3.6-2.2,4.8c-18,15.9-19.8,43.4-3.9,61.4s43.4,19.8,61.4,3.9s19.8-43.4,3.9-61.4c-1.2-1.4-2.5-2.7-3.9-3.9
	c-1.4-1.2-2.2-3-2.2-4.8v-9.4C171.2,125.9,181.7,143.8,181.7,163.2z"/>
<path class="st2" d="M165.7,95.9v23.8c-2.5-2.2-5.3-4.2-8.2-6c-1.9-1.1-3.1-3.2-3.1-5.5V95.9c0-29-24.1-29.8-26.8-29.8
	s-12.2,0.5-18.9,7.3c-5,5-7.4,12.6-7.3,22.5v12.5c0,2.3-1.2,4.3-3.2,5.5c-2.9,1.8-5.6,3.8-8.2,6V95.9c-0.1-13,3.4-23.3,10.6-30.5
	c9.8-9.9,23.1-10.6,26.9-10.6C140.7,54.7,165.7,63.3,165.7,95.9z"/>
<path class="st2" d="M124.7,147.2l-1.6-1.6c-4.9-4.9-12.9-4.9-17.9,0l0,0c-5.8,5.8-5.8,15.2,0,21l18.8,18.8c2.1,2.1,5.5,2.1,7.6,0
	c0,0,0,0,0,0l18.7-18.7c5.8-5.8,5.8-15.2,0-21.1c0,0,0,0,0,0l0,0c-4.9-4.9-12.9-4.9-17.8,0l-1.6,1.6
	C129.3,148.9,126.4,148.9,124.7,147.2C124.7,147.2,124.7,147.2,124.7,147.2z"/>
</svg>
