<svg xmlns="http://www.w3.org/2000/svg" viewBox="0 0 416.93 229.35"><defs><style>.cls-1,.cls-2{fill:none;}.cls-1{stroke:#000;stroke-width:3px;}.cls-1,.cls-2,.cls-3{stroke-miterlimit:10;}.cls-2{stroke:#2a8aff;stroke-width:10px;}.cls-3{fill:#05dbf2;stroke:#05dbf2;stroke-width:13px;}.cls-4{font-size:90px;fill:#7135f2;font-family:MonotypeCorsiva, Monotype Corsiva;letter-spacing:0.03em;}</style></defs><g id="Capa_2" data-name="Capa 2"><g id="Capa_1-2" data-name="Capa 1"><path class="cls-1" d="M229.29,114.29a112.06,112.06,0,0,1-80.1,107.39l-.33.09a14.76,14.76,0,0,1-12.33-2L90.32,189v34.23l-2.49-.81A112,112,0,0,1,5.43,108.61l-.14,6.45A112,112,0,0,1,85.39,7.67l.33-.1a14.81,14.81,0,0,1,12.33,2l46.2,30.85V6.17l2.49.81a112,112,0,0,1,82.41,113.76Z"/><path class="cls-2" d="M227.58,114.29A111.34,111.34,0,0,1,148,221l-.32.09a14.68,14.68,0,0,1-12.26-2L89.5,188.48v34l-2.48-.8a111.34,111.34,0,0,1-81.88-113L5,115.06A111.34,111.34,0,0,1,84.59,8.35l.33-.1a14.66,14.66,0,0,1,12.25,2l45.91,30.65v-34l2.47.8a111.34,111.34,0,0,1,81.89,113Z"/><polygon class="cls-3" points="163.03 73.98 170.03 73.98 170.03 145.99 70.35 72.08 60.92 64.54 55.27 60.3 55.27 160.48 71.53 147.44 64.69 147.44 64.69 82.97 169.53 161.95 178.94 169.05 179.3 61.01 163.03 73.98"/><text class="cls-4" transform="translate(249.6 95.72)">latin</text><text class="cls-4" transform="translate(262.38 187.72)">fans</text></g></g></svg>