<svg xmlns="http://www.w3.org/2000/svg" viewBox="0 0 110.77 165.33"><defs><style>.cls-1{fill:none;stroke:#fff;stroke-miterlimit:10;stroke-width:3px;}</style></defs><g id="Capa_2" data-name="Capa 2"><g id="Capa_1-2" data-name="Capa 1"><path class="cls-1" d="M109.27,109.94A53.89,53.89,0,1,1,28.83,63.05v9.42a6.45,6.45,0,0,1-2.22,4.85,43.5,43.5,0,1,0,57.5,0,6.47,6.47,0,0,1-2.22-4.85V63A53.84,53.84,0,0,1,109.27,109.94Z"/><path class="cls-1" d="M93.22,42.65V66.48a57.8,57.8,0,0,0-8.18-6A6.44,6.44,0,0,1,81.89,55V42.65c0-29-24.09-29.81-26.83-29.81s-12.19.52-18.88,7.27c-5,5-7.44,12.58-7.35,22.48V55.05a6.41,6.41,0,0,1-3.15,5.49,57.87,57.87,0,0,0-8.18,6V42.65c-.12-13,3.45-23.27,10.63-30.52C37.9,2.27,51.21,1.5,55.06,1.5,68.26,1.5,93.22,10.1,93.22,42.65Z"/><path class="cls-1" d="M52.2,93.92l-1.54-1.54a12.64,12.64,0,0,0-17.88,0h0a14.86,14.86,0,0,0,0,21L51.6,132.21a5.37,5.37,0,0,0,7.58,0l18.74-18.74a14.93,14.93,0,0,0,0-21.1l0,0a12.58,12.58,0,0,0-17.79,0l-1.58,1.57A4.47,4.47,0,0,1,52.2,93.92Z"/></g></g></svg>