<svg xmlns="http://www.w3.org/2000/svg" viewBox="0 0 462.38 165.33"><defs><style>.cls-1{fill:#1d1d1b;}.cls-2{fill:none;stroke:#1d1d1b;stroke-miterlimit:10;stroke-width:3px;}</style></defs><g id="Capa_2" data-name="Capa 2"><g id="Capa_1-2" data-name="Capa 1"><path class="cls-1" d="M148.74,66.2q-11.36-11.7-11.35-27.35t11.5-27.1A38.93,38.93,0,0,1,204,11.7a37.07,37.07,0,0,1,11.4,27.15,38.07,38.07,0,0,1-11.3,27.4q-11.31,11.66-27,11.65h-1.5Q160.08,77.9,148.74,66.2Zm63.35-27.15a34.72,34.72,0,0,0-10.45-25.3,35.43,35.43,0,0,0-50.45,0,34.61,34.61,0,0,0-10.5,25.3,34.73,34.73,0,0,0,10.5,25.35,35.25,35.25,0,0,0,50.4,0A34.73,34.73,0,0,0,212.09,39.05Z"/><path class="cls-1" d="M232.39,76.6h-3.2v-45h3.2v9.1q5.1-10.2,17.4-10.2a19,19,0,0,1,14.1,5.8,19.38,19.38,0,0,1,5.7,14.1V76.6h-3.2V50.4a16.86,16.86,0,0,0-4.85-12,15.63,15.63,0,0,0-11.75-5.1,16.92,16.92,0,0,0-12.15,5.1,16.2,16.2,0,0,0-5.25,12Z"/><path class="cls-1" d="M302,74.7v2.8a16.93,16.93,0,0,1-12.1-4.75,16,16,0,0,1-5-12.15V1.6h3.2v59A13.75,13.75,0,0,0,302,74.7Z"/><path class="cls-1" d="M358.18,31.6v45H355V65.4a21,21,0,0,1-8.4,9,23.22,23.22,0,0,1-12,3.3,23,23,0,0,1-16.8-7,23.3,23.3,0,0,1,0-33.3,23,23,0,0,1,16.8-7,24.09,24.09,0,0,1,12.25,3.4,18.45,18.45,0,0,1,8.15,9V31.6ZM314,54.2a19.89,19.89,0,0,0,6.15,14.55,20,20,0,0,0,14.6,6.15,19.45,19.45,0,0,0,14.45-6.15,20.76,20.76,0,0,0-.05-29.25,19.5,19.5,0,0,0-14.45-6.2,19.76,19.76,0,0,0-14.55,6.25A20.23,20.23,0,0,0,314,54.2Z"/><path class="cls-1" d="M389.58,74.4v2.8a16.93,16.93,0,0,1-12.1-4.75,16,16,0,0,1-5-12.15V13.5h3.2V31.7h13.8v2.8h-13.8V60.3a13.75,13.75,0,0,0,13.9,14.1Z"/><path class="cls-1" d="M403.78,20.7c-1.93,0-2.9-.9-2.9-2.7s1-2.7,2.9-2.7,2.9.9,2.9,2.7S405.71,20.7,403.78,20.7Zm1.6,11V76.6h-3.2V31.7Z"/><path class="cls-1" d="M425.18,76.6H422v-45h3.2v9.1q5.1-10.2,17.4-10.2a19,19,0,0,1,14.1,5.8,19.38,19.38,0,0,1,5.7,14.1V76.6h-3.2V50.4a16.86,16.86,0,0,0-4.85-12,15.61,15.61,0,0,0-11.75-5.1,16.92,16.92,0,0,0-12.15,5.1,16.2,16.2,0,0,0-5.25,12Z"/><path class="cls-1" d="M150.9,88.83h26.7v2.9H154.2v40.6h19.5v2.9H154.2v28.6h-3.3Z"/><path class="cls-1" d="M234.3,118.83v45h-3.2v-11.2a21.07,21.07,0,0,1-8.4,9A23.66,23.66,0,0,1,193.9,158a23.3,23.3,0,0,1,0-33.3,23,23,0,0,1,16.8-7,24,24,0,0,1,12.25,3.4,18.45,18.45,0,0,1,8.15,9v-11.3Zm-44.2,22.6a21,21,0,0,0,20.75,20.7A19.46,19.46,0,0,0,225.3,156a20.76,20.76,0,0,0-.05-29.25,19.5,19.5,0,0,0-14.45-6.2,19.72,19.72,0,0,0-14.55,6.25A20.23,20.23,0,0,0,190.1,141.43Z"/><path class="cls-1" d="M252.8,163.83h-3.2v-45h3.2v9.1q5.1-10.2,17.4-10.2a19,19,0,0,1,14.1,5.8,19.38,19.38,0,0,1,5.7,14.1v26.2h-3.2v-26.2a16.86,16.86,0,0,0-4.85-12,15.63,15.63,0,0,0-11.75-5.1,16.92,16.92,0,0,0-12.15,5.1,16.2,16.2,0,0,0-5.25,12Z"/><path class="cls-1" d="M315.1,120.43a6.89,6.89,0,0,0-4.6,1.7,5.27,5.27,0,0,0-2,4.2,6.22,6.22,0,0,0,2.25,4.6,27.43,27.43,0,0,0,5.4,3.85c2.1,1.17,4.21,2.42,6.35,3.75a19.31,19.31,0,0,1,5.45,5.1,11.78,11.78,0,0,1,2.25,7.1,13.27,13.27,0,0,1-4.45,10.05A15.19,15.19,0,0,1,315,164.93a16.18,16.18,0,0,1-7.45-1.75,11.41,11.41,0,0,1-5.05-4.65v-4.8q3.79,8.4,12.2,8.4a12.62,12.62,0,0,0,8.75-3.2,9.5,9.5,0,0,0,3.55-7.15,10,10,0,0,0-2.25-6.65,21,21,0,0,0-5.45-4.6c-2.14-1.27-4.25-2.52-6.35-3.75a20.76,20.76,0,0,1-5.4-4.5,9.28,9.28,0,0,1-2.25-6.2,7.64,7.64,0,0,1,2.85-6,10.89,10.89,0,0,1,7.35-2.45,10.09,10.09,0,0,1,7.7,3.5v4.1Q320,120.43,315.1,120.43Z"/><path class="cls-2" d="M109.27,109.94A53.89,53.89,0,1,1,28.83,63.05v9.42a6.45,6.45,0,0,1-2.22,4.85,43.5,43.5,0,1,0,57.5,0,6.47,6.47,0,0,1-2.22-4.85V63A53.84,53.84,0,0,1,109.27,109.94Z"/><path class="cls-2" d="M93.22,42.65V66.48a57.8,57.8,0,0,0-8.18-6A6.44,6.44,0,0,1,81.89,55V42.65c0-29-24.09-29.81-26.83-29.81s-12.19.52-18.88,7.27c-5,5-7.44,12.58-7.35,22.48V55.05a6.41,6.41,0,0,1-3.15,5.49,57.87,57.87,0,0,0-8.18,6V42.65c-.12-13,3.45-23.27,10.63-30.52C37.9,2.27,51.21,1.5,55.06,1.5,68.26,1.5,93.22,10.1,93.22,42.65Z"/><path class="cls-2" d="M51.93,93.65l-1.27-1.27a12.64,12.64,0,0,0-17.88,0h0a14.86,14.86,0,0,0,0,21l19,19a5.06,5.06,0,0,0,7.16,0l18.94-18.94a14.94,14.94,0,0,0,0-21.12h0a12.58,12.58,0,0,0-17.79,0l-1.3,1.3A4.86,4.86,0,0,1,51.93,93.65Z"/></g></g></svg>