<svg xmlns="http://www.w3.org/2000/svg" viewBox="0 0 260.73 256.62"><defs><style>.cls-1,.cls-2{fill:none;}.cls-1{stroke:#000;stroke-width:3px;}.cls-1,.cls-2,.cls-3{stroke-miterlimit:10;}.cls-2,.cls-3{stroke:#b2b2b2;}.cls-2{stroke-width:10px;}.cls-3{fill:#b2b2b2;stroke-width:13px;}</style></defs><g id="Capa_2" data-name="Capa 2"><g id="Capa_1-2" data-name="Capa 1"><path class="cls-1" d="M257.65,127.87a126.22,126.22,0,0,1-90.23,121l-.36.11a16.67,16.67,0,0,1-13.9-2.23l-52-34.75v38.55l-2.81-.9A126.22,126.22,0,0,1,5.48,121.48l-.16,7.27a126.23,126.23,0,0,1,90.24-121l.36-.11a16.67,16.67,0,0,1,13.9,2.23l52,34.75V6.09l2.81.9A126.22,126.22,0,0,1,257.5,135.14Z"/><path class="cls-2" d="M255.73,127.88a125.41,125.41,0,0,1-89.66,120.2l-.37.11A16.55,16.55,0,0,1,151.9,246l-51.72-34.53v38.31l-2.78-.9A125.41,125.41,0,0,1,5.16,121.52L5,128.74A125.41,125.41,0,0,1,94.66,8.54L95,8.43a16.57,16.57,0,0,1,13.81,2.21l51.71,34.53V6.86l2.79.9A125.42,125.42,0,0,1,255.57,135.1Z"/><polygon class="cls-3" points="183.02 82.47 190.9 82.47 190.9 163.58 78.61 80.32 68 71.83 61.63 67.06 61.63 179.91 79.94 165.22 72.24 165.22 72.24 92.59 190.33 181.56 200.94 189.56 201.35 67.86 183.02 82.47"/></g></g></svg>