<svg xmlns="http://www.w3.org/2000/svg" xmlns:xlink="http://www.w3.org/1999/xlink" viewBox="0 0 292.47 677.68"><defs><style>.cls-1{fill:#000d6d;}.cls-2{fill:#ffd3ca;}.cls-3{fill:#ffb3b3;}.cls-4{fill:#f6e8f9;}.cls-5{fill:url(#Degradado_sin_nombre_49);}.cls-6{fill:url(#Degradado_sin_nombre_49-2);}.cls-7{fill:url(#Degradado_sin_nombre_50);}.cls-8{fill:url(#Degradado_sin_nombre_6);}.cls-9{fill:url(#Degradado_sin_nombre_49-3);}.cls-10,.cls-13{fill:none;stroke-linecap:round;stroke-miterlimit:10;}.cls-10{stroke-width:10px;stroke:url(#Degradado_sin_nombre_49-4);}.cls-11{fill:url(#Degradado_sin_nombre_6-2);}.cls-12{fill:url(#Degradado_sin_nombre_11);}.cls-13{stroke:#000;}.cls-14{fill:url(#Degradado_sin_nombre_11-2);}</style><linearGradient id="Degradado_sin_nombre_49" x1="88.06" y1="732.06" x2="90.57" y2="622.08" gradientUnits="userSpaceOnUse"><stop offset="0" stop-color="#c0ffff"/><stop offset="0.11" stop-color="#b3faff"/><stop offset="0.32" stop-color="#91ebff"/><stop offset="0.6" stop-color="#5ad4ff"/><stop offset="0.94" stop-color="#0fb4ff"/><stop offset="1" stop-color="#00aeff"/></linearGradient><linearGradient id="Degradado_sin_nombre_49-2" x1="25.2" y1="537.42" x2="107.53" y2="537.42" xlink:href="#Degradado_sin_nombre_49"/><linearGradient id="Degradado_sin_nombre_50" x1="40.07" y1="342.58" x2="36.52" y2="259.73" gradientUnits="userSpaceOnUse"><stop offset="0" stop-color="#c0ffff"/><stop offset="0.1" stop-color="#b3faff"/><stop offset="0.29" stop-color="#91ebff"/><stop offset="0.53" stop-color="#5ad4ff"/><stop offset="0.84" stop-color="#0fb4ff"/><stop offset="0.89" stop-color="#00aeff"/></linearGradient><linearGradient id="Degradado_sin_nombre_6" x1="78.37" y1="196.96" x2="243.45" y2="661.93" gradientUnits="userSpaceOnUse"><stop offset="0" stop-color="#7135f2"/><stop offset="0.16" stop-color="#6d3af2"/><stop offset="0.35" stop-color="#6147f2"/><stop offset="0.55" stop-color="#4c5ef2"/><stop offset="0.75" stop-color="#307ef2"/><stop offset="0.96" stop-color="#0ca7f2"/><stop offset="1" stop-color="#05aff2"/></linearGradient><linearGradient id="Degradado_sin_nombre_49-3" x1="1.1" y1="361.1" x2="146.03" y2="361.1" xlink:href="#Degradado_sin_nombre_49"/><linearGradient id="Degradado_sin_nombre_49-4" x1="49.53" y1="605.38" x2="118.03" y2="605.38" xlink:href="#Degradado_sin_nombre_49"/><linearGradient id="Degradado_sin_nombre_6-2" x1="38.85" y1="452.18" x2="251.13" y2="452.18" xlink:href="#Degradado_sin_nombre_6"/><linearGradient id="Degradado_sin_nombre_11" x1="138.11" y1="444.66" x2="71.27" y2="173.29" gradientUnits="userSpaceOnUse"><stop offset="0" stop-color="#05dbf2"/><stop offset="0.12" stop-color="#1adcf3"/><stop offset="0.36" stop-color="#50dff4"/><stop offset="0.7" stop-color="#a5e4f7"/><stop offset="1" stop-color="#f6e8f9"/></linearGradient><linearGradient id="Degradado_sin_nombre_11-2" x1="119.92" y1="257.25" x2="76.16" y2="169.3" xlink:href="#Degradado_sin_nombre_11"/></defs><g id="Capa_2" data-name="Capa 2"><g id="Capa_1-2" data-name="Capa 1"><path class="cls-1" d="M203.32,171.73l-12.9-7.44a7.37,7.37,0,0,1-3.22-8.94l21-56.21a7.34,7.34,0,0,1,7.14-4.78l13.76.47a7.36,7.36,0,0,1,6.7,9.75l-21.84,63.18A7.35,7.35,0,0,1,203.32,171.73Z"/><path class="cls-2" d="M134.73,269.43s38.8,32.25,51.8-39.75a206.54,206.54,0,0,1,13-45l12-13,4-11-21-3-22,33-25,51Z"/><path class="cls-3" d="M129.52,270s39.76,9.41,60.51-94.81Z"/><path class="cls-3" d="M213,164.18s-1.39.77-3,4c-1,2-8,9-8,9l-12,9-5,8,2-13Z"/><path class="cls-2" d="M124.53,565.68l-13,11,9,28,23,16,4-3s-9-30-8-40-14-12-14-12Z"/><path class="cls-2" d="M217.53,662.68l38-7,12-17s-15,5-39-8l-19,12Z"/><path class="cls-4" d="M228.53,673.68s55-17,60-24c0,0,21-31-34-11,0,0,33,3-40,20C214.53,658.68,218.53,675.68,228.53,673.68Z"/><ellipse class="cls-5" cx="89.53" cy="667.68" rx="55" ry="10"/><path class="cls-6" d="M25.2,410.37s51.33,46.31,51.33,249.31c0,0,14,12,26-2,0,0-24-149,5-221Z"/><path class="cls-7" d="M61.53,358.68S38.68,257.89,20.6,286.28l-1.07,61.4,18,58s18-14,18-16S61.53,358.68,61.53,358.68Z"/><path class="cls-8" d="M142,301.18s-3,23,29.5,67.5c32.7,44.77,36,140,36,140l24,123s-3,12-22,12c0,0-27-54-32-96l-9-43-48-100-33-77Z"/><path class="cls-2" d="M143.53,37.68s6.5,11.5,0,26c0,0-.5.5,1,18,0,0-10,2-10,3s-3,34-30,22-35-17-35-17S71.53,19.68,143.53,37.68Z"/><path class="cls-2" d="M105.53,103.68s-9.5,17.5-3.5,33.5l-30.5-15.5,1-34Z"/><path class="cls-9" d="M146,420.18s-125.5-8.5-122.5-138.5c0,0-72,107,42,157C65.53,438.68,113,449.18,146,420.18Z"/><path class="cls-10" d="M65.15,597.06c-7,1.65-10.53,4.49-10.62,7.6-.15,5,13.1,9,29.25,9s29.25-4.05,29.25-9c0-3.17-5.26-5.87-13.22-7.48"/><path class="cls-11" d="M42.53,320.68s-23,63,46,85,106,25,106,25,14,5,4,16l-75,119,17,18,77-84s66-77,13-111c0,0-38-28-67-36,0,0-39-10-47-27Z"/><path class="cls-12" d="M70.53,118.68s61,25,71,66c0,0,3,6-3,25v50l8,64s-57,25-106-1c0,0,11-19,6-87,0,0-35-74,5-115Z"/><path class="cls-2" d="M121.53,271.68s30.56,12.41,63.69-77.56q1.16-3.13,2.31-6.44s0-3,6-6,13-13,13-13,5-5,8-3,6,1,3-2-5-5-11-1c-1,1-4.29.19,0-4a32.19,32.19,0,0,1,9-6c6.09-2.73,6.05-7.47-2-4-6,3-6.88,4.13-12,7-6.64,3.72-5.17-2.17-2-4,3-2,9.14-6.76,11-8,3-2,5-7-2-4s-14,5-24,16c0,0-7,12-10,21,0,0-17,30-49,57Z"/><path class="cls-4" d="M103.53,589.68s29,56,35,54c0,0,23.47,7,6.73-35.5,0,0,5.27,31.5-34.73-32.5C110.53,575.68,100.53,583.68,103.53,589.68Z"/><path class="cls-13" d="M131,58.18s7-4,12,1"/><circle cx="136.28" cy="64.59" r="3.07"/><path class="cls-14" d="M68.86,141.26s-36.33,25.42,3.67,83.42,57,50,57,50-3-42-2-44C127.53,230.68,113.19,131.85,68.86,141.26Z"/><path d="M73,94.18s15.5-11.5,19.5-19.5c0,0-5.5-27.5,13-15l1.5,2.5a12.27,12.27,0,0,1,11-7s27-1,31-22c0,0,0-36-48-33,0,0-29,7-34,22,0,0-23.5-5.5-35.5,6.5s-12,44-12,44,4,61-8,66-18,43-1,44,47-16,55-34,10-56,6-68"/></g></g></svg>